<?xml version="1.0" encoding="iso-8859-1"?>
<!-- Generator: Adobe Illustrator 19.0.0, SVG Export Plug-In . SVG Version: 6.00 Build 0)  -->
<svg version="1.1" id="Capa_1" xmlns="http://www.w3.org/2000/svg" xmlns:xlink="http://www.w3.org/1999/xlink" x="0px" y="0px"
	 viewBox="0 0 480 480" style="enable-background:new 0 0 480 480;" xml:space="preserve">
<path style="fill:#2BB0AF;" d="M304,344h40v-72v-32v-32v-72h-40h-32h-32h-32h-32h-40v72v32v32v72h40h32h32h32H304z M216,216h48v48
	h-48V216z"/>
<g>
	<rect x="216" y="216" style="fill:#EFC95B;" width="48" height="48"/>
	<circle style="fill:#EFC95B;" cx="112" cy="24" r="16"/>
	<circle style="fill:#EFC95B;" cx="368" cy="24" r="16"/>
	<circle style="fill:#EFC95B;" cx="176" cy="24" r="16"/>
	<circle style="fill:#EFC95B;" cx="240" cy="24" r="16"/>
	<circle style="fill:#EFC95B;" cx="304" cy="24" r="16"/>
	<circle style="fill:#EFC95B;" cx="368" cy="456" r="16"/>
	<circle style="fill:#EFC95B;" cx="112" cy="456" r="16"/>
	<circle style="fill:#EFC95B;" cx="304" cy="456" r="16"/>
	<circle style="fill:#EFC95B;" cx="240" cy="456" r="16"/>
	<circle style="fill:#EFC95B;" cx="176" cy="456" r="16"/>
	<circle style="fill:#EFC95B;" cx="456" cy="176" r="16"/>
	<circle style="fill:#EFC95B;" cx="456" cy="240" r="16"/>
	<circle style="fill:#EFC95B;" cx="456" cy="304" r="16"/>
	<circle style="fill:#EFC95B;" cx="24" cy="304" r="16"/>
	<circle style="fill:#EFC95B;" cx="24" cy="240" r="16"/>
	<circle style="fill:#EFC95B;" cx="24" cy="176" r="16"/>
</g>
<g>
	<rect x="168" y="168" style="fill:#383838;" width="16" height="16"/>
	<rect x="168" y="296" style="fill:#383838;" width="16" height="16"/>
	<rect x="168" y="264" style="fill:#383838;" width="16" height="16"/>
	<rect x="168" y="200" style="fill:#383838;" width="16" height="16"/>
	<rect x="296" y="168" style="fill:#383838;" width="16" height="16"/>
	<rect x="296" y="296" style="fill:#383838;" width="16" height="16"/>
	<rect x="296" y="264" style="fill:#383838;" width="16" height="16"/>
	<rect x="168" y="232" style="fill:#383838;" width="16" height="16"/>
	<rect x="296" y="232" style="fill:#383838;" width="16" height="16"/>
	<rect x="296" y="200" style="fill:#383838;" width="16" height="16"/>
	<rect x="200" y="168" style="fill:#383838;" width="16" height="16"/>
	<rect x="264" y="168" style="fill:#383838;" width="16" height="16"/>
	<rect x="200" y="296" style="fill:#383838;" width="16" height="16"/>
	<rect x="264" y="296" style="fill:#383838;" width="16" height="16"/>
	<path style="fill:#383838;" d="M208,216v48c0,4.424,3.584,8,8,8h48c4.416,0,8-3.576,8-8v-48c0-4.424-3.584-8-8-8h-48
		C211.584,208,208,211.576,208,216z M224,224h32v32h-32V224z"/>
	<path style="fill:#383838;" d="M376,216c2.12,0,4.16-0.84,5.656-2.344L411.312,184h22.16c3.312,9.288,12.112,16,22.528,16
		c13.232,0,24-10.768,24-24s-10.768-24-24-24c-10.416,0-19.216,6.712-22.528,16H408c-2.12,0-4.16,0.84-5.656,2.344L372.688,200H352
		v-64c0-4.424-3.584-8-8-8h-32v-4.688l61.656-61.656C375.16,60.16,376,58.128,376,56v-9.472c9.288-3.312,16-12.112,16-22.528
		c0-13.232-10.768-24-24-24s-24,10.768-24,24c0,10.416,6.712,19.216,16,22.528v6.16l-61.656,61.656
		C296.84,115.84,296,117.872,296,120v8h-16v-20.688l29.656-29.656C311.16,76.16,312,74.128,312,72V46.528
		c9.288-3.312,16-12.112,16-22.528c0-13.232-10.768-24-24-24s-24,10.768-24,24c0,10.416,6.712,19.216,16,22.528v22.16
		l-29.656,29.656C264.84,99.84,264,101.872,264,104v24h-16V46.528c9.288-3.312,16-12.112,16-22.528c0-13.232-10.768-24-24-24
		s-24,10.768-24,24c0,10.416,6.712,19.216,16,22.528V128h-16v-24c0-2.128-0.84-4.16-2.344-5.656L184,68.688v-22.16
		c9.288-3.312,16-12.112,16-22.528c0-13.232-10.768-24-24-24s-24,10.768-24,24c0,10.416,6.712,19.216,16,22.528V72
		c0,2.128,0.84,4.16,2.344,5.656L200,107.312V128h-16v-8c0-2.128-0.84-4.16-2.344-5.656L120,52.688v-6.16
		c9.288-3.312,16-12.112,16-22.528c0-13.232-10.768-24-24-24S88,10.768,88,24c0,10.416,6.712,19.216,16,22.528V56
		c0,2.128,0.84,4.16,2.344,5.656L168,123.312V128h-32c-4.416,0-8,3.576-8,8v64h-20.688l-29.656-29.656
		C76.16,168.84,74.12,168,72,168H46.528c-3.312-9.288-12.112-16-22.528-16c-13.232,0-24,10.768-24,24s10.768,24,24,24
		c10.416,0,19.216-6.712,22.528-16h22.16l29.656,29.656C99.84,215.16,101.88,216,104,216h24v16H46.528
		c-3.312-9.288-12.112-16-22.528-16c-13.232,0-24,10.768-24,24s10.768,24,24,24c10.416,0,19.216-6.712,22.528-16H128v16h-24
		c-2.12,0-4.16,0.84-5.656,2.344L68.688,296h-22.16c-3.312-9.288-12.112-16-22.528-16c-13.232,0-24,10.768-24,24s10.768,24,24,24
		c10.416,0,19.216-6.712,22.528-16H72c2.12,0,4.16-0.84,5.656-2.344L107.312,280H128v64c0,4.424,3.584,8,8,8h32v4.688
		l-61.656,61.656C104.84,419.84,104,421.872,104,424v9.472c-9.288,3.312-16,12.112-16,22.528c0,13.232,10.768,24,24,24
		s24-10.768,24-24c0-10.416-6.712-19.216-16-22.528v-6.16l61.656-61.656C183.16,364.16,184,362.128,184,360v-8h16v20.688
		l-29.656,29.656C168.84,403.84,168,405.872,168,408v25.472c-9.288,3.312-16,12.112-16,22.528c0,13.232,10.768,24,24,24
		s24-10.768,24-24c0-10.416-6.712-19.216-16-22.528v-22.16l29.656-29.656C215.16,380.16,216,378.128,216,376v-24h16v81.472
		c-9.288,3.312-16,12.112-16,22.528c0,13.232,10.768,24,24,24s24-10.768,24-24c0-10.416-6.712-19.216-16-22.528V352h16v24
		c0,2.128,0.84,4.16,2.344,5.656L296,411.312v22.16c-9.288,3.312-16,12.112-16,22.528c0,13.232,10.768,24,24,24s24-10.768,24-24
		c0-10.416-6.712-19.216-16-22.528V408c0-2.128-0.84-4.16-2.344-5.656L280,372.688V352h16v8c0,2.128,0.84,4.16,2.344,5.656
		L360,427.312v6.16c-9.288,3.312-16,12.112-16,22.528c0,13.232,10.768,24,24,24s24-10.768,24-24c0-10.416-6.712-19.216-16-22.528
		V424c0-2.128-0.84-4.16-2.344-5.656L312,356.688V352h32c4.416,0,8-3.576,8-8v-64h20.688l29.656,29.656
		C403.84,311.16,405.88,312,408,312h25.472c3.312,9.288,12.112,16,22.528,16c13.232,0,24-10.768,24-24s-10.768-24-24-24
		c-10.416,0-19.216,6.712-22.528,16h-22.16l-29.656-29.656C380.16,264.84,378.12,264,376,264h-24v-16h81.472
		c3.312,9.288,12.112,16,22.528,16c13.232,0,24-10.768,24-24s-10.768-24-24-24c-10.416,0-19.216,6.712-22.528,16H352v-16H376z
		 M456,168c4.408,0,8,3.584,8,8s-3.592,8-8,8s-8-3.584-8-8S451.592,168,456,168z M368,16c4.408,0,8,3.584,8,8s-3.592,8-8,8
		s-8-3.584-8-8S363.592,16,368,16z M304,16c4.408,0,8,3.584,8,8s-3.592,8-8,8s-8-3.584-8-8S299.592,16,304,16z M240,16
		c4.408,0,8,3.584,8,8s-3.592,8-8,8s-8-3.584-8-8S235.592,16,240,16z M176,16c4.408,0,8,3.584,8,8s-3.592,8-8,8s-8-3.584-8-8
		S171.592,16,176,16z M112,16c4.408,0,8,3.584,8,8s-3.592,8-8,8s-8-3.584-8-8S107.592,16,112,16z M24,184c-4.408,0-8-3.584-8-8
		s3.592-8,8-8s8,3.584,8,8S28.408,184,24,184z M24,248c-4.408,0-8-3.584-8-8s3.592-8,8-8s8,3.584,8,8C32,244.416,28.408,248,24,248z
		 M24,312c-4.408,0-8-3.584-8-8s3.592-8,8-8s8,3.584,8,8S28.408,312,24,312z M112,464c-4.408,0-8-3.584-8-8s3.592-8,8-8
		c4.408,0,8,3.584,8,8S116.408,464,112,464z M176,464c-4.408,0-8-3.584-8-8s3.592-8,8-8s8,3.584,8,8S180.408,464,176,464z M240,464
		c-4.408,0-8-3.584-8-8s3.592-8,8-8c4.408,0,8,3.584,8,8S244.408,464,240,464z M304,464c-4.408,0-8-3.584-8-8s3.592-8,8-8
		s8,3.584,8,8S308.408,464,304,464z M368,464c-4.408,0-8-3.584-8-8s3.592-8,8-8s8,3.584,8,8S372.408,464,368,464z M336,336H144V144
		h192V336z M456,296c4.408,0,8,3.584,8,8s-3.592,8-8,8s-8-3.584-8-8S451.592,296,456,296z M456,232c4.408,0,8,3.584,8,8
		c0,4.416-3.592,8-8,8s-8-3.584-8-8S451.592,232,456,232z"/>
	<rect x="232" y="168" style="fill:#383838;" width="16" height="16"/>
	<rect x="232" y="296" style="fill:#383838;" width="16" height="16"/>
</g>
<g>
</g>
<g>
</g>
<g>
</g>
<g>
</g>
<g>
</g>
<g>
</g>
<g>
</g>
<g>
</g>
<g>
</g>
<g>
</g>
<g>
</g>
<g>
</g>
<g>
</g>
<g>
</g>
<g>
</g>
</svg>
